<?xml version="1.0" encoding="utf-8"?>
<svg viewBox="19 19 106 106" style="enable-background:new 0 0 144 144" xmlns="http://www.w3.org/2000/svg">
  <path id="path3" d="M 123.62,70.716 119.22,67.996 C 119.19,67.568 119.14,67.141 119.1,66.716 L 122.87,63.194 C 123.26,62.836 123.43,62.306 123.33,61.793 123.22,61.278 122.86,60.854 122.37,60.671 L 117.55,58.866 C 117.42,58.448 117.3,58.033 117.17,57.62 L 120.18,53.438 C 120.49,53.013 120.55,52.46 120.35,51.975 120.15,51.492 119.71,51.146 119.19,51.061 L 114.1,50.233 C 113.91,49.847 113.7,49.467 113.49,49.09 L 115.63,44.395 C 115.85,43.917 115.81,43.361 115.51,42.927 115.22,42.491 114.73,42.236 114.2,42.256 L 109.04,42.436 C 108.77,42.102 108.5,41.771 108.22,41.446 L 109.41,36.414 C 109.53,35.903 109.38,35.368 109.01,34.997 108.64,34.627 108.1,34.474 107.59,34.594 L 102.56,35.78 C 102.23,35.504 101.9,35.231 101.57,34.964 L 101.75,29.798 C 101.77,29.275 101.51,28.778 101.08,28.488 100.64,28.196 100.09,28.152 99.61,28.369 L 94.916,30.509 C 94.537,30.301 94.157,30.095 93.773,29.896 L 92.943,24.805 C 92.859,24.289 92.513,23.851 92.029,23.651 91.546,23.45 90.992,23.515 90.567,23.821 L 86.382,26.832 C 85.97,26.701 85.556,26.575 85.138,26.455 L 83.333,21.627 C 83.15,21.135 82.726,20.774 82.211,20.672 81.697,20.571 81.168,20.742 80.811,21.124 L 77.289,24.903 C 76.864,24.856 76.436,24.813 76.009,24.778 L 73.289,20.383 C 73.014,19.938 72.527,19.667 72.003,19.667 71.479,19.667 70.992,19.938 70.718,20.383 L 67.998,24.778 C 67.57,24.813 67.142,24.856 66.717,24.903 L 63.194,21.124 C 62.837,20.742 62.307,20.571 61.794,20.672 61.279,20.775 60.855,21.135 60.672,21.627 L 58.867,26.455 C 58.449,26.575 58.035,26.702 57.622,26.832 L 53.438,23.821 C 53.013,23.514 52.459,23.449 51.975,23.651 51.492,23.851 51.145,24.289 51.061,24.805 L 50.231,29.896 C 49.847,30.095 49.467,30.3 49.088,30.509 L 44.394,28.369 C 43.917,28.151 43.361,28.196 42.927,28.488 42.491,28.778 42.236,29.275 42.256,29.798 L 42.436,34.964 C 42.102,35.231 41.771,35.504 41.444,35.78 L 36.413,34.594 C 35.902,34.475 35.366,34.627 34.996,34.997 34.624,35.368 34.473,35.903 34.593,36.414 L 35.778,41.446 C 35.503,41.772 35.231,42.102 34.964,42.436 L 29.798,42.256 C 29.277,42.241 28.779,42.491 28.488,42.927 28.196,43.361 28.152,43.917 28.369,44.395 L 30.509,49.09 C 30.301,49.467 30.095,49.847 29.896,50.233 L 24.806,51.061 C 24.289,51.145 23.853,51.491 23.652,51.975 23.452,52.46 23.517,53.013 23.822,53.438 L 26.833,57.62 C 26.702,58.033 26.575,58.448 26.455,58.866 L 21.627,60.671 C 21.137,60.854 20.776,61.278 20.674,61.793 20.572,62.307 20.743,62.836 21.126,63.194 L 24.903,66.716 C 24.856,67.141 24.814,67.569 24.778,67.996 L 20.384,70.716 C 19.939,70.991 19.668,71.477 19.668,72.002 19.668,72.527 19.939,73.013 20.384,73.287 L 24.778,76.007 C 24.814,76.435 24.856,76.862 24.903,77.287 L 21.126,80.81 C 20.743,81.167 20.572,81.697 20.674,82.21 20.776,82.725 21.137,83.148 21.627,83.332 L 26.455,85.137 C 26.575,85.555 26.702,85.97 26.833,86.383 L 23.822,90.566 C 23.516,90.992 23.451,91.545 23.652,92.028 23.853,92.513 24.29,92.859 24.807,92.942 L 29.896,93.77 C 30.095,94.156 30.299,94.536 30.509,94.915 L 28.369,99.608 C 28.151,100.08 28.196,100.64 28.488,101.08 28.78,101.51 29.277,101.77 29.798,101.75 L 34.962,101.57 C 35.231,101.9 35.502,102.23 35.778,102.56 L 34.593,107.59 C 34.473,108.1 34.624,108.63 34.996,109 35.365,109.38 35.902,109.53 36.413,109.41 L 41.444,108.22 C 41.771,108.5 42.102,108.77 42.436,109.04 L 42.256,114.2 C 42.236,114.73 42.491,115.22 42.927,115.51 43.361,115.8 43.917,115.85 44.394,115.63 L 49.088,113.49 C 49.466,113.7 49.846,113.91 50.231,114.1 L 51.061,119.19 C 51.145,119.71 51.491,120.15 51.975,120.35 52.458,120.55 53.013,120.48 53.438,120.18 L 57.62,117.17 C 58.033,117.3 58.448,117.42 58.866,117.54 L 60.671,122.37 C 60.854,122.86 61.278,123.22 61.793,123.32 62.307,123.43 62.836,123.26 63.193,122.87 L 66.716,119.09 C 67.141,119.14 67.569,119.18 67.997,119.22 L 70.717,123.62 C 70.991,124.06 71.478,124.33 72.002,124.33 72.526,124.33 73.013,124.06 73.288,123.62 L 76.008,119.22 C 76.436,119.18 76.863,119.14 77.288,119.09 L 80.81,122.87 C 81.167,123.26 81.697,123.43 82.21,123.32 82.725,123.22 83.149,122.86 83.332,122.37 L 85.137,117.54 C 85.555,117.42 85.97,117.3 86.383,117.17 L 90.566,120.18 C 90.991,120.48 91.545,120.55 92.028,120.35 92.512,120.15 92.858,119.71 92.942,119.19 L 93.772,114.1 C 94.156,113.91 94.536,113.7 94.915,113.49 L 99.609,115.63 C 100.09,115.85 100.64,115.8 101.08,115.51 101.51,115.22 101.77,114.73 101.75,114.2 L 101.57,109.04 C 101.9,108.77 102.23,108.5 102.56,108.22 L 107.59,109.41 C 108.1,109.53 108.64,109.38 109,109 109.38,108.63 109.53,108.1 109.41,107.59 L 108.22,102.56 C 108.5,102.23 108.77,101.9 109.04,101.57 L 114.2,101.75 C 114.72,101.77 115.22,101.51 115.51,101.08 115.8,100.64 115.85,100.08 115.63,99.608 L 113.49,94.915 C 113.7,94.536 113.91,94.156 114.1,93.77 L 119.19,92.942 C 119.71,92.859 120.15,92.513 120.35,92.028 120.55,91.545 120.48,90.992 120.18,90.566 L 117.17,86.383 C 117.3,85.97 117.42,85.555 117.54,85.137 L 122.37,83.332 C 122.86,83.148 123.22,82.725 123.32,82.21 123.43,81.696 123.26,81.167 122.87,80.81 L 119.1,77.287 C 119.14,76.862 119.18,76.434 119.22,76.007 L 123.62,73.287 C 124.06,73.013 124.33,72.526 124.33,72.002 124.33,71.478 124.06,70.991 123.62,70.716 Z M 94.208,107.17 C 92.53,106.81 91.463,105.15 91.823,103.47 92.182,101.79 93.835,100.72 95.512,101.08 97.19,101.44 98.259,103.1 97.899,104.78 97.539,106.46 95.885,107.53 94.208,107.17 Z M 64.903,34.055 69.689,39.076 C 70.771,40.209 72.563,40.251 73.695,39.168 L 79.05,34.046 C 90.271,36.135 99.771,43.12 105.25,52.703 L 101.58,60.983 C 100.95,62.416 101.59,64.092 103.02,64.727 L 110.08,67.862 C 111.49,80.621 105.88,91.917 99.29,98.482 L 92.715,97.069 C 91.184,96.741 89.678,97.715 89.35,99.249 L 87.79,106.53 C 82.976,108.71 77.63,109.93 72,109.93 66.241,109.93 60.779,108.65 55.879,106.38 L 54.32,99.096 C 53.992,97.564 52.486,96.588 50.956,96.917 L 44.529,98.297 C 37.763,91.181 32.753,81.02 33.954,67.553 L 40.649,64.578 C 42.079,63.943 42.725,62.267 42.09,60.834 L 38.61,52.96 C 44.643,42.306 54.679,36.008 64.903,34.055 Z M 49.463,107.01 C 47.785,107.38 46.133,106.31 45.772,104.63 45.413,102.94 46.48,101.29 48.158,100.93 49.836,100.57 51.489,101.64 51.849,103.32 52.208,105 51.14,106.65 49.463,107.01 Z M 37.6,58.91 C 38.296,60.481 37.588,62.322 36.019,63.017 34.45,63.714 32.614,63.005 31.918,61.433 31.222,59.861 31.93,58.023 33.499,57.326 35.069,56.63 36.904,57.338 37.6,58.91 Z M 69.691,29.784 C 70.931,28.596 72.898,28.643 74.085,29.885 75.27,31.13 75.225,33.099 73.982,34.286 72.742,35.474 70.775,35.428 69.588,34.184 68.404,32.941 68.449,30.972 69.691,29.784 Z M 106.07,59.061 C 106.77,57.49 108.6,56.781 110.17,57.478 111.74,58.174 112.45,60.014 111.75,61.585 111.06,63.157 109.22,63.866 107.65,63.169 106.08,62.473 105.38,60.634 106.07,59.061 Z"/>
  <g transform="matrix(1, 0, 0, 1, 0.261968, -0.243347)">
    <g>
      <g>
        <g transform="matrix(0.24749, 0, 0, 0.24749, 55.686649, 38.375492)">
          <polygon points="91.56 50.38 105.91 95.32 69.55 90.61" style="stroke:#000;fill:#fff"/>
          <path d="M105.91,96.5c-0.05,0-0.1,0-0.15-0.01l-36.37-4.71c-0.39-0.05-0.72-0.29-0.9-0.64 c-0.18-0.35-0.17-0.76,0.01-1.1l22.02-40.23c0.23-0.41,0.69-0.65,1.15-0.61c0.47,0.04,0.87,0.36,1.01,0.81l14.24,44.62 c0.14,0.19,0.22,0.43,0.22,0.68c0,0.65-0.53,1.18-1.18,1.18C105.96,96.5,105.93,96.5,105.91,96.5z M71.4,89.66l32.82,4.25 L91.28,53.36L71.4,89.66z" style="stroke:#000"/>
        </g>
        <g>
          <path d="M40.19,34.91c0,3.01-2.44,5.46-5.46,5.46c-3.01,0-5.46-2.45-5.46-5.46 c0-3.02,2.44-5.46,5.46-5.46C37.75,29.45,40.19,31.89,40.19,34.91z" transform="matrix(0.24749, 0, 0, 0.24749, 55.686649, 38.375492)" style="stroke:#000;fill:#fff"/>
          <path d="M34.73,41.54c-3.66,0-6.64-2.98-6.64-6.64c0-3.66,2.98-6.64,6.64-6.64 c3.66,0,6.64,2.98,6.64,6.64C41.37,38.56,38.39,41.54,34.73,41.54z M34.73,30.63c-2.36,0-4.28,1.92-4.28,4.28 c0,2.36,1.92,4.28,4.28,4.28c2.36,0,4.29-1.92,4.29-4.28C39.02,32.55,37.09,30.63,34.73,30.63z" transform="matrix(0.24749, 0, 0, 0.24749, 55.686649, 38.375492)" style="stroke:#000"/>
        </g>
        <g>
          <path d="M93.58,29.45c3.01,0.18,5.31,2.77,5.13,5.78c-0.17,3.01-2.77,5.3-5.77,5.13 c-3.02-0.18-5.31-2.76-5.13-5.77C87.99,31.57,90.57,29.27,93.58,29.45z" transform="matrix(0.24749, 0, 0, 0.24749, 55.686649, 38.375492)" style="stroke:#000;fill:#fff"/>
          <path d="M93.26,41.54l-0.39-0.01c-1.77-0.1-3.4-0.89-4.57-2.21c-1.18-1.33-1.77-3.03-1.67-4.8 c0.21-3.51,3.12-6.25,6.63-6.25l0.39,0.01c3.66,0.22,6.46,3.38,6.24,7.03C99.68,38.8,96.78,41.54,93.26,41.54z M93.49,30.62 c-2.5,0-4.37,1.77-4.5,4.03c-0.07,1.14,0.31,2.24,1.07,3.1c0.76,0.86,1.8,1.36,2.95,1.43l0.25,0.01c2.26,0,4.14-1.77,4.27-4.03 c0.14-2.36-1.67-4.39-4.03-4.54H93.49z" transform="matrix(0.24749, 0, 0, 0.24749, 55.686649, 38.375492)" style="stroke:#000"/>
        </g>
        <g transform="matrix(0.24749, 0, 0, 0.24749, 55.686649, 38.375492)">
          <polygon points="36.43 50.38 22.09 95.32 58.45 90.61" style="stroke:#000;fill:#fff"/>
          <path d="M22.09,96.5c-0.34,0-0.68-0.15-0.91-0.42c-0.26-0.31-0.34-0.73-0.22-1.11l14.34-44.94 c0.14-0.45,0.54-0.77,1.01-0.81c0.51-0.05,0.92,0.19,1.15,0.61l22.02,40.23c0.18,0.34,0.19,0.75,0.01,1.1 c-0.17,0.35-0.51,0.58-0.9,0.64l-36.36,4.71C22.19,96.5,22.14,96.5,22.09,96.5z M36.72,53.36L23.77,93.92l32.82-4.25 L36.72,53.36z" style="stroke:#000"/>
        </g>
      </g>
      <g>
        <path d="M72.17,28.76c0,4.51-3.66,8.17-8.17,8.17s-8.18-3.66-8.18-8.17c0-4.52,3.66-8.17,8.18-8.17 S72.17,24.24,72.17,28.76z" transform="matrix(0.24749, 0, 0, 0.24749, 55.686649, 38.375492)" style="fill:#fcc21b;stroke:#000"/>
        <path d="M13.45,34.91c0,3.58-2.9,6.48-6.49,6.48c-3.58,0-6.48-2.9-6.48-6.48c0-3.59,2.9-6.49,6.48-6.49 C10.55,28.42,13.45,31.32,13.45,34.91z" transform="matrix(0.24749, 0, 0, 0.24749, 55.686649, 38.375492)" style="fill:#fcc21b;stroke:#000"/>
        <path d="M114.54,34.91c0,3.58,2.9,6.48,6.49,6.48c3.58,0,6.49-2.9,6.49-6.48c0-3.59-2.91-6.49-6.49-6.49 C117.45,28.42,114.54,31.32,114.54,34.91z" transform="matrix(0.24749, 0, 0, 0.24749, 55.686649, 38.375492)" style="fill:#fcc21b;stroke:#000"/>
        <path d="M72.17,28.76c0,4.51-3.66,8.17-8.17,8.17s-8.18-3.66-8.18-8.17c0-4.52,3.66-8.17,8.18-8.17 S72.17,24.24,72.17,28.76z" transform="matrix(0.24749, 0, 0, 0.24749, 55.686649, 38.375492)" style="stroke:#000;fill:#fff"/>
        <path d="M13.45,34.91c0,3.58-2.9,6.48-6.49,6.48c-3.58,0-6.48-2.9-6.48-6.48c0-3.59,2.9-6.49,6.48-6.49 C10.55,28.42,13.45,31.32,13.45,34.91z" transform="matrix(0.24749, 0, 0, 0.24749, 55.686649, 38.375492)" style="stroke:#000;fill:#fff"/>
        <path d="M114.54,34.91c0,3.58,2.9,6.48,6.49,6.48c3.58,0,6.49-2.9,6.49-6.48c0-3.59-2.91-6.49-6.49-6.49 C117.45,28.42,114.54,31.32,114.54,34.91z" transform="matrix(0.24749, 0, 0, 0.24749, 55.686649, 38.375492)" style="stroke:#000;fill:#fff"/>
        <g transform="matrix(0.24749, 0, 0, 0.24749, 55.686649, 38.375492)">
          <defs>
            <path id="SVGID_1_" d="M119.5,53.43c-0.44-0.19-0.94-0.11-1.29,0.22L87.25,82.71L65.16,49.72c-0.22-0.33-0.58-0.52-0.98-0.52h0 c-0.39,0-0.76,0.19-0.98,0.51l-22.19,33L10.06,53.64c-0.35-0.33-0.85-0.41-1.29-0.22c-0.43,0.19-0.71,0.63-0.69,1.1l1.27,47.52 c0,10.33,24.06,18.43,54.78,18.43c30.72,0,54.78-8.1,54.78-18.4l1.27-47.55C120.2,54.06,119.93,53.62,119.5,53.43z"/>
          </defs>
          <path d="M119.5,53.43c-0.44-0.19-0.94-0.11-1.29,0.22L87.25,82.71L65.16,49.72c-0.22-0.33-0.58-0.52-0.98-0.52h0 c-0.39,0-0.76,0.19-0.98,0.51l-22.19,33L10.06,53.64c-0.35-0.33-0.85-0.41-1.29-0.22c-0.43,0.19-0.71,0.63-0.69,1.1l1.27,47.52 c0,10.33,24.06,18.43,54.78,18.43c30.72,0,54.78-8.1,54.78-18.4l1.27-47.55C120.2,54.06,119.93,53.62,119.5,53.43z" transform="matrix(1, 0, 0, 1, 0, 0)" style="overflow:visible;stroke:#000"/>
          <clipPath id="SVGID_2_">
            <path d="M119.5,53.43c-0.44-0.19-0.94-0.11-1.29,0.22L87.25,82.71L65.16,49.72c-0.22-0.33-0.58-0.52-0.98-0.52h0 c-0.39,0-0.76,0.19-0.98,0.51l-22.19,33L10.06,53.64c-0.35-0.33-0.85-0.41-1.29-0.22c-0.43,0.19-0.71,0.63-0.69,1.1l1.27,47.52 c0,10.33,24.06,18.43,54.78,18.43c30.72,0,54.78-8.1,54.78-18.4l1.27-47.55C120.2,54.06,119.93,53.62,119.5,53.43z" transform="matrix(1, 0, 0, 1, 0, 0)" style="overflow:visible"/>
          </clipPath>
          <path d="M119.91,78.06l0.01,0.01l-0.59,18.85c-0.01,0-0.01,0-0.01,0 c-4.2-0.13-7.46-4.45-7.3-9.66C112.18,82.04,115.71,77.93,119.91,78.06z" style="clip-path:url(#SVGID_2_);stroke:#000;fill:#fff"/>
          <path d="M8.37,78.06l-0.01,0.01l0.58,18.85c0.01,0,0.01,0,0.02,0 c4.19-0.13,7.46-4.45,7.29-9.66C16.09,82.04,12.56,77.93,8.37,78.06z" style="clip-path:url(#SVGID_2_);stroke:#000;fill:#fff"/>
        </g>
      </g>
      <path d="M72.8,96.55c0,5.58-3.88,10.11-8.67,10.11c-4.78,0-8.66-4.53-8.66-10.11 c0-5.59,3.88-10.11,8.66-10.11C68.92,86.43,72.8,90.96,72.8,96.55z" transform="matrix(0.24749, 0, 0, 0.24749, 55.686649, 38.375492)" style="stroke:#000;fill:#fff"/>
    </g>
    <g transform="matrix(0.24749, 0, 0, 0.24749, 55.686649, 38.375492)">
      <path d="M89.9,102.14c-0.13,2.7-2.12,4.79-4.44,4.68c-2.31-0.11-4.08-2.4-3.94-5.09 c0.14-2.71,2.13-4.8,4.44-4.68C88.27,97.15,90.03,99.44,89.9,102.14z" style="stroke:#000;fill:#fff"/>
      <ellipse cx="103.04" cy="98.95" rx="4.89" ry="4.2" transform="matrix(0.0521 -0.9986 0.9986 0.0521 -1.1487 196.698)" style="stroke:#000;fill:#fff"/>
    </g>
    <g transform="matrix(0.24749, 0, 0, 0.24749, 55.686649, 38.375492)">
      <path d="M38.37,102.14c0.13,2.7,2.12,4.79,4.44,4.68c2.31-0.11,4.08-2.4,3.94-5.09 c-0.13-2.71-2.12-4.8-4.43-4.68C40,97.15,38.23,99.44,38.37,102.14z" style="stroke:#000;fill:#fff"/>
      <ellipse cx="25.23" cy="98.95" rx="4.19" ry="4.89" transform="matrix(0.9986 -0.0521 0.0521 0.9986 -5.1214 1.4491)" style="stroke:#000;fill:#fff"/>
    </g>
  </g>
  <g transform="matrix(0.285025, 0, 0, 0.285025, 53.556454, 70.556641)" style="">
    <g>
      <path d="M71.91,115.9c-0.89-4.62-0.97-9.35-1.44-14.02c-0.07-0.61-0.14-1.23-0.16-1.84 c-0.03-1.3-0.68-2.16-1.9-2.64c-0.63-0.25-1.44-0.21-2.1-0.32c-0.72-0.12-1.4-0.17-2.13-0.15c-0.06,0-0.12,0.01-0.18,0.02 c-0.05-0.01-0.11-0.02-0.17-0.02c-0.73-0.02-1.42,0.03-2.14,0.15c-0.67,0.11-1.47,0.07-2.11,0.32c-1.22,0.48-1.87,1.34-1.9,2.64 c-0.02,0.61-0.09,1.23-0.15,1.84c-0.47,4.68-0.55,9.4-1.44,14.02c-0.72,3.79-5.25,9.9,0.83,11.29c4.52,1.02,9.64,1.03,14.16,0 C77.17,125.81,72.64,119.69,71.91,115.9z" style=""/>
      <path d="M113.07,88.9c-6.87-1.93-12.27-4.5-16.09-6.69c-0.27-0.24-0.66-0.44-0.53-0.83 c0.09-0.25,0.42-0.35,0.66-0.4c2.3-0.31,4.27-0.64,5.7-0.99c8.03-1.92,8.09-7.04,8.09-7.04s1.18-6.13-6.03-8.14 c-6.35-1.78-11.45-4.11-15.21-6.19c-0.26-0.17-0.5-0.35-0.39-0.66c0.06-0.17,0.19-0.25,0.34-0.29c1.18-0.14,2.26-0.28,3.15-0.45 c6.96-1.28,7.24-5.68,7.24-5.68s1.17-4.89-4.79-7.24c-5.54-2.18-11.1-5.44-14.76-7.78c-0.19-0.2-0.44-0.46-0.32-0.73 c0.11-0.26,0.42-0.28,0.66-0.31c0,0,0.02,0,0.03,0l1.07,0.12c0,0,6.16,1.17,8.07-4.11c1.91-5.28-3.96-8.07-3.96-8.07 C74.42,17.99,66.79,2.58,66.79,2.58C65.17-0.5,64,0.09,64,0.09s-1.17-0.59-2.78,2.5c0,0-7.63,15.41-19.22,20.83 c0,0-5.87,2.79-3.97,8.07c1.91,5.28,8.08,4.11,8.08,4.11l1.07-0.12c0,0,0.02,0,0.02,0c0.25,0.04,0.55,0.05,0.67,0.31 c0.12,0.27-0.13,0.53-0.32,0.73c-3.66,2.33-9.22,5.59-14.76,7.78c-5.97,2.35-4.8,7.24-4.8,7.24s0.28,4.39,7.24,5.68 c0.9,0.17,1.98,0.31,3.15,0.45c0.15,0.05,0.28,0.13,0.33,0.29c0.11,0.31-0.13,0.49-0.39,0.66c-3.76,2.08-8.86,4.41-15.21,6.19 c-7.2,2.02-6.02,8.14-6.02,8.14s0.06,5.13,8.09,7.04c1.44,0.35,3.41,0.68,5.7,0.99c0.23,0.05,0.58,0.16,0.66,0.4 c0.13,0.39-0.26,0.59-0.53,0.83c-3.82,2.2-9.22,4.77-16.1,6.69c-7.2,2.02-6.03,8.13-6.03,8.13s0.13,4.88,8.09,7.05 c3.29,0.89,7.9,0.92,13.02,0.44c0.72,0.03,1.49-0.05,2.12,0.33c0.78,0.47,0.81,1.48,1.04,2.26c0.22,0.75,0.49,1.49,0.87,2.16 c3.39,6.09,11.73,3.84,17.76-0.21c0.59-0.34,1.27-0.6,1.97-0.71c0.95-0.16,1.94-0.05,2.78,0.42c0.07,0.04,0.16,0.1,0.23,0.15 c0.66,0.56,1.35,1.08,2.1,1.51c1.36,0.79,3.06,1.18,4.58,1.54c2.81,0.67,6.4,0.17,9.04-1.49c0.11-0.06,0.22-0.14,0.29-0.18 c0.07-0.04,0.12-0.09,0.19-0.14c0.08-0.06,0.16-0.11,0.23-0.17c0.27-0.2,0.53-0.41,0.81-0.59c0.56-0.35,1.21-0.59,1.87-0.64 c0.3-0.02,0.59,0,0.88,0.05c0.45,0.1,0.9,0.27,1.29,0.5c0.08,0.04,0.2,0.12,0.32,0.18c5.97,3.82,13.92,5.77,17.21-0.14 c0.38-0.69,0.65-1.42,0.86-2.16c0.23-0.79,0.27-1.79,1.04-2.27c0.52-0.31,1.13-0.31,1.73-0.32c4.61,0.36,8.73,0.27,11.75-0.55 c7.96-2.17,8.09-7.05,8.09-7.05S120.27,90.92,113.07,88.9z" style=""/>
    </g>
    <path d="M51.65,29.53c1.13,0.44,1.86,1.31,3.49,0.67c1.04-0.41,1.97-1.96,2.12-3.03 c0.22-1.66-0.91-1.26-1.99-1.79c-0.32-0.84,0.62-2.17,0.14-3.11c-0.69-1.34-2.81,0.09-3.43,0.8c-0.99,1.13-1.83,1.97-3.22,2.7 c-0.93,0.49-4.86,2.56-2.93,3.97c0.4,0.29,0.81,0.33,1.29,0.33c1.26-0.01,2.53-0.87,3.73-0.73C51.15,29.36,51.41,29.43,51.65,29.53 z" style="fill: rgb(255, 255, 255);"/>
    <path d="M40.09,47.06c-1.43,0.51-4.48,2.4-2.56,4.15c1.34,1.23,4.2,0.52,5.77,0.13 c0.66-0.16,1.52-0.62,2.21-0.58c0.74,0.04,0.75,0.58,0.99,1.18c0.5,1.23,1.41,1.47,2.67,1.47c0.76,0,1.37,0.04,2.06-0.29 c1.64-0.78,1.53-0.39,3.04,0.15c1.76,0.63,3.28-0.24,4.31-1.66c0.34-0.46,0.6-1.17,0.57-1.72c-0.05-1.07-0.8-1.62-1.91-1.47 c-1.12,0.16-1.89,0.41-2.5-0.73c-0.79-1.5-3.07,0.37-3.62-0.71c-0.25-0.47,0.28-1.49,0.19-2.05c-0.11-0.7-0.52-1.23-1.26-1.35 c-1.16-0.19-2.11,0.12-3.04,0.63c-1.74,0.95-3.25,1.71-5.14,2.31C41.39,46.65,40.76,46.82,40.09,47.06z" style="fill: rgb(255, 255, 255);"/>
    <path d="M42.56,63.99c-0.96-0.13-2.09,0.27-2.89,0.66c-3.28,1.6-6.53,3.29-9.84,4.85 c-1.17,0.55-3.03,1.1-2.97,2.72c0.09,2.96,5.2,1.7,6.91,1.5c1.51-0.17,3.98-0.77,5.22,0.45c0.72,0.7,1.06,1.12,2.11,1.23 c1.77,0.19,4.08-1.59,5.67-0.73c0.66,0.35,1.03,0.83,1.77,1.08c1.79,0.62,3.97-0.12,5.44-1.22c1.25-0.93,2.14-3.62,0.44-4.53 c-1.11-0.6-2,0.49-3.03,0.3c-1.56-0.28-1.18-1.46-2.28-2.31c-1.33-1.03-3.4,0.7-4.37-0.32c-0.81-0.85-0.27-2.27-0.98-3.07 C43.42,64.23,43.01,64.05,42.56,63.99z" style="fill: rgb(255, 255, 255);"/>
    <path d="M39.15,87.31c-2.73-0.53-5.49,1.52-7.84,2.57c-2.59,1.15-5.46,1.33-8.02,2.56 c-1.7,0.82-1.53,3.4,0.13,4.14c1.52,0.67,3.46,0.48,5.07,0.39c2.38-0.13,4.64-1.16,7.02-1.38c3.25-0.29,3.41,0.58,3.96,3.37 c0.41,2.02,2.55,3.12,4.51,2.7c1.02-0.22,1.91-1.1,2.87-1.52c1.2-0.53,1.14-0.38,2.29,0.01c0.83,0.28,1.9,0.26,2.71-0.05 c1.36-0.51,2-1.58,2.03-2.95c0.04-2.13,0.02-4.92-2.92-4.11c-3.21,0.89-2.17-0.85-4.51-1.72c-1.66-0.62-3.2,0.97-4.72-0.39 C40.53,89.87,41.23,87.77,39.15,87.31z" style="fill: rgb(255, 255, 255);"/>
    <path d="M39.15,87.31c-2.73-0.53-5.49,1.52-7.84,2.57c-2.59,1.15-5.46,1.33-8.02,2.56 c-1.7,0.82-1.53,3.4,0.13,4.14c1.52,0.67,3.46,0.48,5.07,0.39c2.38-0.13,4.64-1.16,7.02-1.38c3.25-0.29,3.41,0.58,3.96,3.37 c0.41,2.02,2.55,3.12,4.51,2.7c1.02-0.22,1.91-1.1,2.87-1.52c1.2-0.53,1.14-0.38,2.29,0.01c0.83,0.28,1.9,0.26,2.71-0.05 c1.36-0.51,2-1.58,2.03-2.95c0.04-2.13,0.02-4.92-2.92-4.11c-3.21,0.89-2.17-0.85-4.51-1.72c-1.66-0.62-3.2,0.97-4.72-0.39 C40.53,89.87,41.23,87.77,39.15,87.31z" style="fill: rgb(255, 255, 255);" transform="matrix(1, 0, 0, 1, 5.726011, 1.490742)"/>
    <path d="M 93.13 101.663 C 90.4 102.193 87.64 100.143 85.29 99.093 C 82.7 97.943 79.83 97.763 77.27 96.533 C 75.57 95.713 75.74 93.133 77.4 92.393 C 78.92 91.723 80.86 91.913 82.47 92.003 C 84.85 92.133 87.11 93.163 89.49 93.383 C 92.74 93.673 92.9 92.803 93.45 90.013 C 93.86 87.993 96 86.893 97.96 87.313 C 98.98 87.533 99.87 88.413 100.83 88.833 C 102.03 89.363 101.97 89.213 103.12 88.823 C 103.95 88.543 105.02 88.563 105.83 88.873 C 107.19 89.383 107.83 90.453 107.86 91.823 C 107.9 93.953 107.88 96.743 104.94 95.933 C 101.73 95.043 102.77 96.783 100.43 97.653 C 98.77 98.273 97.23 96.683 95.71 98.043 C 94.51 99.103 95.21 101.203 93.13 101.663 Z" style="fill: rgb(255, 255, 255);" transform="matrix(-1, 0, 0, -1, 183.939835, 188.973335)"/>
    <path d="M 86.905 103.153 C 84.175 103.683 81.415 101.633 79.065 100.583 C 76.475 99.433 73.605 99.253 71.045 98.023 C 69.345 97.203 69.515 94.623 71.175 93.883 C 72.695 93.213 74.635 93.403 76.245 93.493 C 78.625 93.623 80.885 94.653 83.265 94.873 C 86.515 95.163 86.675 94.293 87.225 91.503 C 87.635 89.483 89.775 88.383 91.735 88.803 C 92.755 89.023 93.645 89.903 94.605 90.323 C 95.805 90.853 95.745 90.703 96.895 90.313 C 97.725 90.033 98.795 90.053 99.605 90.363 C 100.965 90.873 101.605 91.943 101.635 93.313 C 101.675 95.443 101.655 98.233 98.715 97.423 C 95.505 96.533 96.545 98.273 94.205 99.143 C 92.545 99.763 91.005 98.173 89.485 99.533 C 88.285 100.593 88.985 102.693 86.905 103.153 Z" style="fill: rgb(255, 255, 255);" transform="matrix(-1, 0, 0, -1, 171.489838, 191.953331)"/>
    <path d="M 78.059 22.615 C 79.189 22.175 79.919 21.305 81.549 21.945 C 82.589 22.355 83.519 23.905 83.669 24.975 C 83.889 26.635 82.759 26.235 81.679 26.765 C 81.359 27.605 82.299 28.935 81.819 29.875 C 81.129 31.215 79.009 29.785 78.389 29.075 C 77.399 27.945 76.559 27.105 75.169 26.375 C 74.239 25.885 70.309 23.815 72.239 22.405 C 72.639 22.115 73.049 22.075 73.529 22.075 C 74.789 22.085 76.059 22.945 77.259 22.805 C 77.559 22.785 77.819 22.715 78.059 22.615 Z" style="fill: rgb(255, 255, 255);" transform="matrix(-1, 0, 0, -1, 155.40937, 52.14514)"/>
    <path d="M 73.024 49.942 C 71.594 49.432 68.544 47.542 70.464 45.792 C 71.804 44.562 74.664 45.272 76.234 45.662 C 76.894 45.822 77.754 46.282 78.444 46.242 C 79.184 46.202 79.194 45.662 79.434 45.062 C 79.934 43.832 80.844 43.592 82.104 43.592 C 82.864 43.592 83.474 43.552 84.164 43.882 C 85.804 44.662 85.694 44.272 87.204 43.732 C 88.964 43.102 90.484 43.972 91.514 45.392 C 91.854 45.852 92.114 46.562 92.084 47.112 C 92.034 48.182 91.284 48.732 90.174 48.582 C 89.054 48.422 88.284 48.172 87.674 49.312 C 86.884 50.812 84.604 48.942 84.054 50.022 C 83.804 50.492 84.334 51.512 84.244 52.072 C 84.134 52.772 83.724 53.302 82.984 53.422 C 81.824 53.612 80.874 53.302 79.944 52.792 C 78.204 51.842 76.694 51.082 74.804 50.482 C 74.324 50.352 73.694 50.182 73.024 49.942 Z" style="fill: rgb(255, 255, 255);" transform="matrix(-1, 0, 0, -1, 161.934044, 97.00214)"/>
    <path d="M 89.342 75.951 C 88.382 76.081 87.252 75.681 86.452 75.291 C 83.172 73.691 79.922 72.001 76.612 70.441 C 75.442 69.891 73.582 69.341 73.642 67.721 C 73.732 64.761 78.842 66.021 80.552 66.221 C 82.062 66.391 84.532 66.991 85.772 65.771 C 86.492 65.071 86.832 64.651 87.882 64.541 C 89.652 64.351 91.962 66.131 93.552 65.271 C 94.212 64.921 94.582 64.441 95.322 64.191 C 97.112 63.571 99.292 64.311 100.762 65.411 C 102.012 66.341 102.902 69.031 101.202 69.941 C 100.092 70.541 99.202 69.451 98.172 69.641 C 96.612 69.921 96.992 71.101 95.892 71.951 C 94.562 72.981 92.492 71.251 91.522 72.271 C 90.712 73.121 91.252 74.541 90.542 75.341 C 90.202 75.711 89.792 75.891 89.342 75.951 Z" style="fill: rgb(255, 255, 255);" transform="matrix(-1, 0, 0, -1, 175.782204, 139.941383)"/>
  </g>
</svg>