<svg xmlns="http://www.w3.org/2000/svg" viewBox="19 19 106 106" style="enable-background:new 0 0 144 144"><path id="path3" d="M 123.62,70.716 119.22,67.996 C 119.19,67.568 119.14,67.141 119.1,66.716 L 122.87,63.194 C 123.26,62.836 123.43,62.306 123.33,61.793 123.22,61.278 122.86,60.854 122.37,60.671 L 117.55,58.866 C 117.42,58.448 117.3,58.033 117.17,57.62 L 120.18,53.438 C 120.49,53.013 120.55,52.46 120.35,51.975 120.15,51.492 119.71,51.146 119.19,51.061 L 114.1,50.233 C 113.91,49.847 113.7,49.467 113.49,49.09 L 115.63,44.395 C 115.85,43.917 115.81,43.361 115.51,42.927 115.22,42.491 114.73,42.236 114.2,42.256 L 109.04,42.436 C 108.77,42.102 108.5,41.771 108.22,41.446 L 109.41,36.414 C 109.53,35.903 109.38,35.368 109.01,34.997 108.64,34.627 108.1,34.474 107.59,34.594 L 102.56,35.78 C 102.23,35.504 101.9,35.231 101.57,34.964 L 101.75,29.798 C 101.77,29.275 101.51,28.778 101.08,28.488 100.64,28.196 100.09,28.152 99.61,28.369 L 94.916,30.509 C 94.537,30.301 94.157,30.095 93.773,29.896 L 92.943,24.805 C 92.859,24.289 92.513,23.851 92.029,23.651 91.546,23.45 90.992,23.515 90.567,23.821 L 86.382,26.832 C 85.97,26.701 85.556,26.575 85.138,26.455 L 83.333,21.627 C 83.15,21.135 82.726,20.774 82.211,20.672 81.697,20.571 81.168,20.742 80.811,21.124 L 77.289,24.903 C 76.864,24.856 76.436,24.813 76.009,24.778 L 73.289,20.383 C 73.014,19.938 72.527,19.667 72.003,19.667 71.479,19.667 70.992,19.938 70.718,20.383 L 67.998,24.778 C 67.57,24.813 67.142,24.856 66.717,24.903 L 63.194,21.124 C 62.837,20.742 62.307,20.571 61.794,20.672 61.279,20.775 60.855,21.135 60.672,21.627 L 58.867,26.455 C 58.449,26.575 58.035,26.702 57.622,26.832 L 53.438,23.821 C 53.013,23.514 52.459,23.449 51.975,23.651 51.492,23.851 51.145,24.289 51.061,24.805 L 50.231,29.896 C 49.847,30.095 49.467,30.3 49.088,30.509 L 44.394,28.369 C 43.917,28.151 43.361,28.196 42.927,28.488 42.491,28.778 42.236,29.275 42.256,29.798 L 42.436,34.964 C 42.102,35.231 41.771,35.504 41.444,35.78 L 36.413,34.594 C 35.902,34.475 35.366,34.627 34.996,34.997 34.624,35.368 34.473,35.903 34.593,36.414 L 35.778,41.446 C 35.503,41.772 35.231,42.102 34.964,42.436 L 29.798,42.256 C 29.277,42.241 28.779,42.491 28.488,42.927 28.196,43.361 28.152,43.917 28.369,44.395 L 30.509,49.09 C 30.301,49.467 30.095,49.847 29.896,50.233 L 24.806,51.061 C 24.289,51.145 23.853,51.491 23.652,51.975 23.452,52.46 23.517,53.013 23.822,53.438 L 26.833,57.62 C 26.702,58.033 26.575,58.448 26.455,58.866 L 21.627,60.671 C 21.137,60.854 20.776,61.278 20.674,61.793 20.572,62.307 20.743,62.836 21.126,63.194 L 24.903,66.716 C 24.856,67.141 24.814,67.569 24.778,67.996 L 20.384,70.716 C 19.939,70.991 19.668,71.477 19.668,72.002 19.668,72.527 19.939,73.013 20.384,73.287 L 24.778,76.007 C 24.814,76.435 24.856,76.862 24.903,77.287 L 21.126,80.81 C 20.743,81.167 20.572,81.697 20.674,82.21 20.776,82.725 21.137,83.148 21.627,83.332 L 26.455,85.137 C 26.575,85.555 26.702,85.97 26.833,86.383 L 23.822,90.566 C 23.516,90.992 23.451,91.545 23.652,92.028 23.853,92.513 24.29,92.859 24.807,92.942 L 29.896,93.77 C 30.095,94.156 30.299,94.536 30.509,94.915 L 28.369,99.608 C 28.151,100.08 28.196,100.64 28.488,101.08 28.78,101.51 29.277,101.77 29.798,101.75 L 34.962,101.57 C 35.231,101.9 35.502,102.23 35.778,102.56 L 34.593,107.59 C 34.473,108.1 34.624,108.63 34.996,109 35.365,109.38 35.902,109.53 36.413,109.41 L 41.444,108.22 C 41.771,108.5 42.102,108.77 42.436,109.04 L 42.256,114.2 C 42.236,114.73 42.491,115.22 42.927,115.51 43.361,115.8 43.917,115.85 44.394,115.63 L 49.088,113.49 C 49.466,113.7 49.846,113.91 50.231,114.1 L 51.061,119.19 C 51.145,119.71 51.491,120.15 51.975,120.35 52.458,120.55 53.013,120.48 53.438,120.18 L 57.62,117.17 C 58.033,117.3 58.448,117.42 58.866,117.54 L 60.671,122.37 C 60.854,122.86 61.278,123.22 61.793,123.32 62.307,123.43 62.836,123.26 63.193,122.87 L 66.716,119.09 C 67.141,119.14 67.569,119.18 67.997,119.22 L 70.717,123.62 C 70.991,124.06 71.478,124.33 72.002,124.33 72.526,124.33 73.013,124.06 73.288,123.62 L 76.008,119.22 C 76.436,119.18 76.863,119.14 77.288,119.09 L 80.81,122.87 C 81.167,123.26 81.697,123.43 82.21,123.32 82.725,123.22 83.149,122.86 83.332,122.37 L 85.137,117.54 C 85.555,117.42 85.97,117.3 86.383,117.17 L 90.566,120.18 C 90.991,120.48 91.545,120.55 92.028,120.35 92.512,120.15 92.858,119.71 92.942,119.19 L 93.772,114.1 C 94.156,113.91 94.536,113.7 94.915,113.49 L 99.609,115.63 C 100.09,115.85 100.64,115.8 101.08,115.51 101.51,115.22 101.77,114.73 101.75,114.2 L 101.57,109.04 C 101.9,108.77 102.23,108.5 102.56,108.22 L 107.59,109.41 C 108.1,109.53 108.64,109.38 109,109 109.38,108.63 109.53,108.1 109.41,107.59 L 108.22,102.56 C 108.5,102.23 108.77,101.9 109.04,101.57 L 114.2,101.75 C 114.72,101.77 115.22,101.51 115.51,101.08 115.8,100.64 115.85,100.08 115.63,99.608 L 113.49,94.915 C 113.7,94.536 113.91,94.156 114.1,93.77 L 119.19,92.942 C 119.71,92.859 120.15,92.513 120.35,92.028 120.55,91.545 120.48,90.992 120.18,90.566 L 117.17,86.383 C 117.3,85.97 117.42,85.555 117.54,85.137 L 122.37,83.332 C 122.86,83.148 123.22,82.725 123.32,82.21 123.43,81.696 123.26,81.167 122.87,80.81 L 119.1,77.287 C 119.14,76.862 119.18,76.434 119.22,76.007 L 123.62,73.287 C 124.06,73.013 124.33,72.526 124.33,72.002 124.33,71.478 124.06,70.991 123.62,70.716 Z M 94.208,107.17 C 92.53,106.81 91.463,105.15 91.823,103.47 92.182,101.79 93.835,100.72 95.512,101.08 97.19,101.44 98.259,103.1 97.899,104.78 97.539,106.46 95.885,107.53 94.208,107.17 Z M 64.903,34.055 69.689,39.076 C 70.771,40.209 72.563,40.251 73.695,39.168 L 79.05,34.046 C 90.271,36.135 99.771,43.12 105.25,52.703 L 101.58,60.983 C 100.95,62.416 101.59,64.092 103.02,64.727 L 110.08,67.862 C 111.49,80.621 105.88,91.917 99.29,98.482 L 92.715,97.069 C 91.184,96.741 89.678,97.715 89.35,99.249 L 87.79,106.53 C 82.976,108.71 77.63,109.93 72,109.93 66.241,109.93 60.779,108.65 55.879,106.38 L 54.32,99.096 C 53.992,97.564 52.486,96.588 50.956,96.917 L 44.529,98.297 C 37.763,91.181 32.753,81.02 33.954,67.553 L 40.649,64.578 C 42.079,63.943 42.725,62.267 42.09,60.834 L 38.61,52.96 C 44.643,42.306 54.679,36.008 64.903,34.055 Z M 49.463,107.01 C 47.785,107.38 46.133,106.31 45.772,104.63 45.413,102.94 46.48,101.29 48.158,100.93 49.836,100.57 51.489,101.64 51.849,103.32 52.208,105 51.14,106.65 49.463,107.01 Z M 37.6,58.91 C 38.296,60.481 37.588,62.322 36.019,63.017 34.45,63.714 32.614,63.005 31.918,61.433 31.222,59.861 31.93,58.023 33.499,57.326 35.069,56.63 36.904,57.338 37.6,58.91 Z M 69.691,29.784 C 70.931,28.596 72.898,28.643 74.085,29.885 75.27,31.13 75.225,33.099 73.982,34.286 72.742,35.474 70.775,35.428 69.588,34.184 68.404,32.941 68.449,30.972 69.691,29.784 Z M 106.07,59.061 C 106.77,57.49 108.6,56.781 110.17,57.478 111.74,58.174 112.45,60.014 111.75,61.585 111.06,63.157 109.22,63.866 107.65,63.169 106.08,62.473 105.38,60.634 106.07,59.061 Z"/><g><g><g><g transform="matrix(0.24749, 0, 0, 0.24749, 55.686649, 38.375492)"><polygon points="91.56 50.38 105.91 95.32 69.55 90.61" style="stroke:#000;fill:#fff"/><path d="M105.91,96.5c-0.05,0-0.1,0-0.15-0.01l-36.37-4.71c-0.39-0.05-0.72-0.29-0.9-0.64 c-0.18-0.35-0.17-0.76,0.01-1.1l22.02-40.23c0.23-0.41,0.69-0.65,1.15-0.61c0.47,0.04,0.87,0.36,1.01,0.81l14.24,44.62 c0.14,0.19,0.22,0.43,0.22,0.68c0,0.65-0.53,1.18-1.18,1.18C105.96,96.5,105.93,96.5,105.91,96.5z M71.4,89.66l32.82,4.25 L91.28,53.36L71.4,89.66z" style="stroke:#000"/></g><g><path d="M40.19,34.91c0,3.01-2.44,5.46-5.46,5.46c-3.01,0-5.46-2.45-5.46-5.46 c0-3.02,2.44-5.46,5.46-5.46C37.75,29.45,40.19,31.89,40.19,34.91z" transform="matrix(0.24749, 0, 0, 0.24749, 55.686649, 38.375492)" style="stroke:#000;fill:#fff"/><path d="M34.73,41.54c-3.66,0-6.64-2.98-6.64-6.64c0-3.66,2.98-6.64,6.64-6.64 c3.66,0,6.64,2.98,6.64,6.64C41.37,38.56,38.39,41.54,34.73,41.54z M34.73,30.63c-2.36,0-4.28,1.92-4.28,4.28 c0,2.36,1.92,4.28,4.28,4.28c2.36,0,4.29-1.92,4.29-4.28C39.02,32.55,37.09,30.63,34.73,30.63z" transform="matrix(0.24749, 0, 0, 0.24749, 55.686649, 38.375492)" style="stroke:#000"/></g><g><path d="M93.58,29.45c3.01,0.18,5.31,2.77,5.13,5.78c-0.17,3.01-2.77,5.3-5.77,5.13 c-3.02-0.18-5.31-2.76-5.13-5.77C87.99,31.57,90.57,29.27,93.58,29.45z" transform="matrix(0.24749, 0, 0, 0.24749, 55.686649, 38.375492)" style="stroke:#000;fill:#fff"/><path d="M93.26,41.54l-0.39-0.01c-1.77-0.1-3.4-0.89-4.57-2.21c-1.18-1.33-1.77-3.03-1.67-4.8 c0.21-3.51,3.12-6.25,6.63-6.25l0.39,0.01c3.66,0.22,6.46,3.38,6.24,7.03C99.68,38.8,96.78,41.54,93.26,41.54z M93.49,30.62 c-2.5,0-4.37,1.77-4.5,4.03c-0.07,1.14,0.31,2.24,1.07,3.1c0.76,0.86,1.8,1.36,2.95,1.43l0.25,0.01c2.26,0,4.14-1.77,4.27-4.03 c0.14-2.36-1.67-4.39-4.03-4.54H93.49z" transform="matrix(0.24749, 0, 0, 0.24749, 55.686649, 38.375492)" style="stroke:#000"/></g><g transform="matrix(0.24749, 0, 0, 0.24749, 55.686649, 38.375492)"><polygon points="36.43 50.38 22.09 95.32 58.45 90.61" style="stroke:#000;fill:#fff"/><path d="M22.09,96.5c-0.34,0-0.68-0.15-0.91-0.42c-0.26-0.31-0.34-0.73-0.22-1.11l14.34-44.94 c0.14-0.45,0.54-0.77,1.01-0.81c0.51-0.05,0.92,0.19,1.15,0.61l22.02,40.23c0.18,0.34,0.19,0.75,0.01,1.1 c-0.17,0.35-0.51,0.58-0.9,0.64l-36.36,4.71C22.19,96.5,22.14,96.5,22.09,96.5z M36.72,53.36L23.77,93.92l32.82-4.25 L36.72,53.36z" style="stroke:#000"/></g></g><g><path d="M72.17,28.76c0,4.51-3.66,8.17-8.17,8.17s-8.18-3.66-8.18-8.17c0-4.52,3.66-8.17,8.18-8.17 S72.17,24.24,72.17,28.76z" transform="matrix(0.24749, 0, 0, 0.24749, 55.686649, 38.375492)" style="fill:#fcc21b;stroke:#000"/><path d="M13.45,34.91c0,3.58-2.9,6.48-6.49,6.48c-3.58,0-6.48-2.9-6.48-6.48c0-3.59,2.9-6.49,6.48-6.49 C10.55,28.42,13.45,31.32,13.45,34.91z" transform="matrix(0.24749, 0, 0, 0.24749, 55.686649, 38.375492)" style="fill:#fcc21b;stroke:#000"/><path d="M114.54,34.91c0,3.58,2.9,6.48,6.49,6.48c3.58,0,6.49-2.9,6.49-6.48c0-3.59-2.91-6.49-6.49-6.49 C117.45,28.42,114.54,31.32,114.54,34.91z" transform="matrix(0.24749, 0, 0, 0.24749, 55.686649, 38.375492)" style="fill:#fcc21b;stroke:#000"/><path d="M72.17,28.76c0,4.51-3.66,8.17-8.17,8.17s-8.18-3.66-8.18-8.17c0-4.52,3.66-8.17,8.18-8.17 S72.17,24.24,72.17,28.76z" transform="matrix(0.24749, 0, 0, 0.24749, 55.686649, 38.375492)" style="stroke:#000;fill:#fff"/><path d="M13.45,34.91c0,3.58-2.9,6.48-6.49,6.48c-3.58,0-6.48-2.9-6.48-6.48c0-3.59,2.9-6.49,6.48-6.49 C10.55,28.42,13.45,31.32,13.45,34.91z" transform="matrix(0.24749, 0, 0, 0.24749, 55.686649, 38.375492)" style="stroke:#000;fill:#fff"/><path d="M114.54,34.91c0,3.58,2.9,6.48,6.49,6.48c3.58,0,6.49-2.9,6.49-6.48c0-3.59-2.91-6.49-6.49-6.49 C117.45,28.42,114.54,31.32,114.54,34.91z" transform="matrix(0.24749, 0, 0, 0.24749, 55.686649, 38.375492)" style="stroke:#000;fill:#fff"/><g transform="matrix(0.24749, 0, 0, 0.24749, 55.686649, 38.375492)"><defs><path id="SVGID_1_" d="M119.5,53.43c-0.44-0.19-0.94-0.11-1.29,0.22L87.25,82.71L65.16,49.72c-0.22-0.33-0.58-0.52-0.98-0.52h0 c-0.39,0-0.76,0.19-0.98,0.51l-22.19,33L10.06,53.64c-0.35-0.33-0.85-0.41-1.29-0.22c-0.43,0.19-0.71,0.63-0.69,1.1l1.27,47.52 c0,10.33,24.06,18.43,54.78,18.43c30.72,0,54.78-8.1,54.78-18.4l1.27-47.55C120.2,54.06,119.93,53.62,119.5,53.43z"/></defs><path d="M119.5,53.43c-0.44-0.19-0.94-0.11-1.29,0.22L87.25,82.71L65.16,49.72c-0.22-0.33-0.58-0.52-0.98-0.52h0 c-0.39,0-0.76,0.19-0.98,0.51l-22.19,33L10.06,53.64c-0.35-0.33-0.85-0.41-1.29-0.22c-0.43,0.19-0.71,0.63-0.69,1.1l1.27,47.52 c0,10.33,24.06,18.43,54.78,18.43c30.72,0,54.78-8.1,54.78-18.4l1.27-47.55C120.2,54.06,119.93,53.62,119.5,53.43z" transform="matrix(1, 0, 0, 1, 0, 0)" style="overflow:visible;stroke:#000"/><clipPath id="SVGID_2_"><path d="M119.5,53.43c-0.44-0.19-0.94-0.11-1.29,0.22L87.25,82.71L65.16,49.72c-0.22-0.33-0.58-0.52-0.98-0.52h0 c-0.39,0-0.76,0.19-0.98,0.51l-22.19,33L10.06,53.64c-0.35-0.33-0.85-0.41-1.29-0.22c-0.43,0.19-0.71,0.63-0.69,1.1l1.27,47.52 c0,10.33,24.06,18.43,54.78,18.43c30.72,0,54.78-8.1,54.78-18.4l1.27-47.55C120.2,54.06,119.93,53.62,119.5,53.43z" transform="matrix(1, 0, 0, 1, 0, 0)" style="overflow:visible"/></clipPath><path d="M119.91,78.06l0.01,0.01l-0.59,18.85c-0.01,0-0.01,0-0.01,0 c-4.2-0.13-7.46-4.45-7.3-9.66C112.18,82.04,115.71,77.93,119.91,78.06z" style="clip-path:url(#SVGID_2_);stroke:#000;fill:#fff"/><path d="M8.37,78.06l-0.01,0.01l0.58,18.85c0.01,0,0.01,0,0.02,0 c4.19-0.13,7.46-4.45,7.29-9.66C16.09,82.04,12.56,77.93,8.37,78.06z" style="clip-path:url(#SVGID_2_);stroke:#000;fill:#fff"/></g></g><path d="M72.8,96.55c0,5.58-3.88,10.11-8.67,10.11c-4.78,0-8.66-4.53-8.66-10.11 c0-5.59,3.88-10.11,8.66-10.11C68.92,86.43,72.8,90.96,72.8,96.55z" transform="matrix(0.24749, 0, 0, 0.24749, 55.686649, 38.375492)" style="stroke:#000;fill:#fff"/></g><g transform="matrix(0.24749, 0, 0, 0.24749, 55.686649, 38.375492)"><path d="M89.9,102.14c-0.13,2.7-2.12,4.79-4.44,4.68c-2.31-0.11-4.08-2.4-3.94-5.09 c0.14-2.71,2.13-4.8,4.44-4.68C88.27,97.15,90.03,99.44,89.9,102.14z" style="stroke:#000;fill:#fff"/><ellipse cx="103.04" cy="98.95" rx="4.89" ry="4.2" transform="matrix(0.0521 -0.9986 0.9986 0.0521 -1.1487 196.698)" style="stroke:#000;fill:#fff"/></g><g transform="matrix(0.24749, 0, 0, 0.24749, 55.686649, 38.375492)"><path d="M38.37,102.14c0.13,2.7,2.12,4.79,4.44,4.68c2.31-0.11,4.08-2.4,3.94-5.09 c-0.13-2.71-2.12-4.8-4.43-4.68C40,97.15,38.23,99.44,38.37,102.14z" style="stroke:#000;fill:#fff"/><ellipse cx="25.23" cy="98.95" rx="4.19" ry="4.89" transform="matrix(0.9986 -0.0521 0.0521 0.9986 -5.1214 1.4491)" style="stroke:#000;fill:#fff"/></g></g><path d="M 76.047 94.448 L 80.122 90.372 L 61.375 71.624 L 57.3 71.624 L 57.3 75.701 Z" style="stroke:#000;fill:#fff"/><path d="M 57.301 71.625 L 57.301 75.702 L 76.048 94.449 L 78.086 92.411 Z" style="stroke:#000;fill:#fff"/><path d="M 82.687 98.547 C 83.322 99.184 84.859 97.648 84.223 97.01 L 79.996 92.015 C 79.361 91.378 78.499 91.207 78.075 91.631 L 77.307 92.398 C 76.881 92.823 77.054 93.682 77.691 94.319 L 82.687 98.547 Z" style="stroke:#000;fill:#fff"/><path d="M 74.809 95.472 C 75.286 95.95 76.061 95.95 76.537 95.472 L 81.149 90.862 C 81.627 90.385 81.626 89.609 81.149 89.133 C 80.671 88.655 79.897 88.655 79.419 89.133 L 74.809 93.744 C 74.332 94.221 74.332 94.996 74.809 95.472 Z" style="stroke:#000;fill:#fff"/><path d="M 82.014 99.794 C 82.49 100.272 83.265 100.272 83.742 99.794 L 85.471 98.065 C 85.949 97.588 85.949 96.813 85.471 96.335 C 84.993 95.859 84.22 95.858 83.742 96.335 L 82.014 98.065 C 81.536 98.542 81.536 99.316 82.014 99.794 Z" style="stroke:#000;fill:#fff"/><path d="M 66.266 94.448 L 62.191 90.372 L 80.938 71.624 L 85.013 71.624 L 85.013 75.701 Z" style="stroke:#000;fill:#fff"/><path d="M 66.268 94.449 L 85.015 75.702 L 85.015 71.625 L 64.23 92.411 Z" style="stroke:#000;fill:#fff"/><path d="M 59.63 98.547 C 58.994 99.184 57.456 97.648 58.093 97.01 L 62.32 92.015 C 62.956 91.378 63.817 91.207 64.241 91.631 L 65.009 92.398 C 65.433 92.823 65.262 93.682 64.625 94.319 L 59.63 98.547 Z" style="stroke:#000;fill:#fff"/><path d="M 67.507 95.474 C 67.031 95.951 66.255 95.951 65.778 95.474 L 61.168 90.863 C 60.69 90.386 60.691 89.611 61.168 89.134 C 61.645 88.656 62.42 88.656 62.898 89.134 L 67.508 93.745 C 67.984 94.223 67.984 94.997 67.507 95.474 Z" style="stroke:#000;fill:#fff"/><path d="M 60.302 99.794 C 59.825 100.272 59.051 100.272 58.573 99.794 L 56.845 98.065 C 56.367 97.588 56.367 96.813 56.845 96.335 C 57.321 95.859 58.095 95.858 58.573 96.335 L 60.302 98.065 C 60.78 98.542 60.78 99.316 60.302 99.794 Z" style="stroke:#000;fill:#fff"/></svg>